<svg xmlns="http://www.w3.org/2000/svg" width="29.075" height="29.075" viewBox="0 0 24.932 22.629">
<g id="Groupe_101" data-name="Groupe 101" transform="translate(-252.646 -401.123)">
    <path id="Tracé_125" data-name="Tracé 125" d="M262.524,434.351a2.3,2.3,0,1,0,2.3-2.3A2.3,2.3,0,0,0,262.524,434.351Z" transform="translate(-4.121 -12.901)" fill="#159bed"/>
    <path id="Tracé_126" data-name="Tracé 126" d="M284.254,434.351a2.3,2.3,0,1,0,2.3-2.3A2.3,2.3,0,0,0,284.254,434.351Z" transform="translate(-13.186 -12.901)" fill="#159bed"/>
    <path id="Tracé_127" data-name="Tracé 127" d="M261.809,414.8l-3.454-11.564a1.151,1.151,0,0,0-1.1-.822H253.8a1.151,1.151,0,1,0,0,2.3h2.6l3.169,10.61a2.255,2.255,0,0,0,2.244,2.055H272.27a2.255,2.255,0,0,0,2.244-2.064l2.267-7.983a1.152,1.152,0,0,0-1.107-1.466H265.311a1.152,1.152,0,0,0,0,2.3h8.839l-1.887,6.644c-.029.1.007.157.007.264l-10.413.051A1.149,1.149,0,0,0,261.809,414.8Z" transform="translate(0 -0.539)" fill="#159bed"/>
    <path id="Tracé_128" data-name="Tracé 128" d="M273.562,416.091H263.1a2.256,2.256,0,0,1-2.244-2.056l-3.169-10.61h-2.6a1.151,1.151,0,0,1,0-2.3h3.454a1.15,1.15,0,0,1,1.1.822l3.454,11.564a1.152,1.152,0,0,1,.048.329l10.413-.05c0-.107-.036-.162-.006-.265l1.887-6.644H266.6a1.151,1.151,0,0,1,0-2.3h10.363a1.151,1.151,0,0,1,1.107,1.466l-2.267,7.984A2.255,2.255,0,0,1,273.562,416.091Z" transform="translate(-0.539)" fill="#0f71b8"/>
    <circle id="Ellipse_23" data-name="Ellipse 23" cx="2.303" cy="2.303" r="2.303" transform="translate(259.156 418.394)" fill="#0f71b8"/>
    <path id="Tracé_129" data-name="Tracé 129" d="M285.546,433.059a2.3,2.3,0,1,1,2.3,2.3A2.3,2.3,0,0,1,285.546,433.059Z" transform="translate(-13.725 -12.362)" fill="#0f71b8"/>
</g>
</svg>
