<svg xmlns="http://www.w3.org/2000/svg" width="29.075" height="29.075" viewBox="0 0 24.478 22.217">
    <g id="Groupe_1315" data-name="Groupe 1315" transform="translate(-341.354 -454.534)">
        <path id="Tracé_2334" data-name="Tracé 2334" d="M351.232,487.719a2.261,2.261,0,1,0,2.261-2.261A2.26,2.26,0,0,0,351.232,487.719Z" transform="translate(-4.226 -13.229)" fill="#bfbfbf"/>
        <path id="Tracé_2335" data-name="Tracé 2335" d="M372.962,487.719a2.261,2.261,0,1,0,2.261-2.261A2.261,2.261,0,0,0,372.962,487.719Z" transform="translate(-13.521 -13.229)" fill="#bfbfbf"/>
        <path id="Tracé_2336" data-name="Tracé 2336" d="M350.35,467.986l-3.391-11.354a1.13,1.13,0,0,0-1.083-.807h-3.392a1.13,1.13,0,0,0,0,2.261h2.549l3.112,10.417a2.214,2.214,0,0,0,2.2,2.018h10.273a2.214,2.214,0,0,0,2.2-2.027l2.225-7.838a1.13,1.13,0,0,0-1.087-1.439H353.789a1.13,1.13,0,1,0,0,2.261h8.678L360.614,468c-.029.1.007.155.007.259l-10.224.05A1.124,1.124,0,0,0,350.35,467.986Z" transform="translate(0 -0.552)" fill="#bfbfbf"/>
        <path id="Tracé_2337" data-name="Tracé 2337" d="M361.913,469.229H351.64a2.214,2.214,0,0,1-2.2-2.018l-3.111-10.417h-2.549a1.13,1.13,0,0,1,0-2.261h3.392a1.13,1.13,0,0,1,1.083.807l3.392,11.354a1.124,1.124,0,0,1,.048.323l10.223-.05c0-.1-.035-.159-.006-.259l1.852-6.523H355.08a1.13,1.13,0,0,1,0-2.261h10.174a1.131,1.131,0,0,1,1.087,1.44l-2.225,7.838A2.213,2.213,0,0,1,361.913,469.229Z" transform="translate(-0.553)" fill="#fff"/>
        <circle id="Ellipse_414" data-name="Ellipse 414" cx="2.261" cy="2.261" r="2.261" transform="translate(347.745 471.49)" fill="#fff"/>
        <path id="Tracé_2338" data-name="Tracé 2338" d="M374.276,486.746a2.261,2.261,0,1,1,2.557,1.919A2.262,2.262,0,0,1,374.276,486.746Z" transform="translate(-14.074 -12.676)" fill="#fff"/>
    </g>
</svg>
