<svg xmlns="http://www.w3.org/2000/svg" width="29.075" height="29.075" viewBox="0 0 22.602 26.07">
    <g id="Groupe_1287" data-name="Groupe 1287" transform="translate(-416.353 -364.107)">
        <path id="Tracé_2280" data-name="Tracé 2280" d="M436.711,375.53h1.52a1.956,1.956,0,0,1,.5-1.3,3.467,3.467,0,0,0,0-4.625,1.963,1.963,0,0,1-.424-.767.761.761,0,0,0-1.466.4,3.484,3.484,0,0,0,.756,1.378,1.947,1.947,0,0,1,0,2.6A3.472,3.472,0,0,0,436.711,375.53Z" transform="translate(-10.042 -2.069)" fill="#159bed"/>
        <path id="Tracé_2281" data-name="Tracé 2281" d="M427.858,372.46h1.52a1.956,1.956,0,0,1,.5-1.3,3.467,3.467,0,0,0,0-4.626,1.967,1.967,0,0,1-.423-.767.761.761,0,0,0-1.466.4,3.481,3.481,0,0,0,.755,1.377,1.948,1.948,0,0,1,0,2.6A3.471,3.471,0,0,0,427.858,372.46Z" transform="translate(-5.675 -0.555)" fill="#159bed"/>
        <path id="Tracé_2282" data-name="Tracé 2282" d="M425.931,400.68a7.049,7.049,0,0,0,6.879-5.558h1.31a3.953,3.953,0,0,0,3.949-3.948v-.8a3.953,3.953,0,0,0-3.949-3.948h-1.168a1.192,1.192,0,0,0-1.177-1.025H417.547a1.2,1.2,0,0,0-1.194,1.194v7.048a7.047,7.047,0,0,0,7.04,7.039Zm10.111-10.309v.8a1.923,1.923,0,0,1-1.922,1.921H432.97V388.45h1.151A1.924,1.924,0,0,1,436.042,390.371Zm-17.662,3.27v-6.216h12.563v6.216a5.017,5.017,0,0,1-5.012,5.012h-2.538A5.018,5.018,0,0,1,418.38,393.641Z" transform="translate(0 -10.502)" fill="#159bed"/>
        <g id="Groupe_1286" data-name="Groupe 1286" transform="translate(417.24 364.107)">
            <g id="Groupe_1282" data-name="Groupe 1282" transform="translate(14.59 11.243)">
                <path id="Tracé_2283" data-name="Tracé 2283" d="M450.073,394.994H446.9v-8.7h3.178a3.952,3.952,0,0,1,3.948,3.948v.8A3.952,3.952,0,0,1,450.073,394.994Zm-1.151-2.027h1.151a1.923,1.923,0,0,0,1.921-1.921v-.8a1.923,1.923,0,0,0-1.921-1.921h-1.151Z" transform="translate(-446.895 -386.295)" fill="#0f71b8"/>
            </g>
            <g id="Groupe_1283" data-name="Groupe 1283" transform="translate(10.316 1.556)">
                <path id="Tracé_2284" data-name="Tracé 2284" d="M439.981,374.4h-1.52a3.472,3.472,0,0,1,.884-2.312,1.948,1.948,0,0,0,0-2.6,3.486,3.486,0,0,1-.756-1.378.755.755,0,0,1,.742-.935h0a.749.749,0,0,1,.724.534,1.963,1.963,0,0,0,.424.767,3.467,3.467,0,0,1,0,4.625A1.956,1.956,0,0,0,439.981,374.4Z" transform="translate(-438.461 -367.177)" fill="#0f71b8"/>
            </g>
            <g id="Groupe_1284" data-name="Groupe 1284" transform="translate(5.83)">
                <path id="Tracé_2285" data-name="Tracé 2285" d="M431.128,371.335h-1.52a3.472,3.472,0,0,1,.884-2.313,1.948,1.948,0,0,0,0-2.6,3.481,3.481,0,0,1-.755-1.377.754.754,0,0,1,.742-.935h0a.749.749,0,0,1,.724.534,1.967,1.967,0,0,0,.423.767,3.467,3.467,0,0,1,0,4.626A1.954,1.954,0,0,0,431.128,371.335Z" transform="translate(-429.608 -364.107)" fill="#0f71b8"/>
            </g>
            <g id="Groupe_1285" data-name="Groupe 1285" transform="translate(0 10.219)">
                <path id="Tracé_2286" data-name="Tracé 2286" d="M427.681,399.555h-2.538a7.047,7.047,0,0,1-7.04-7.039v-7.048a1.2,1.2,0,0,1,1.194-1.194h14.228a1.2,1.2,0,0,1,1.194,1.194v7.048A7.047,7.047,0,0,1,427.681,399.555ZM420.13,386.3v6.216a5.018,5.018,0,0,0,5.013,5.012h2.538a5.018,5.018,0,0,0,5.012-5.012V386.3Z" transform="translate(-418.103 -384.273)" fill="#0f71b8"/>
            </g>
        </g>
    </g>
</svg>
