<svg xmlns="http://www.w3.org/2000/svg" width="29.075" height="29.075" viewBox="0 0 23.855 27.515">
    <g id="Groupe_1321" data-name="Groupe 1321" transform="translate(-303.738 -520.2)">
        <path id="Tracé_2339" data-name="Tracé 2339" d="M324.1,532.023h1.6a2.065,2.065,0,0,1,.526-1.373,3.659,3.659,0,0,0,0-4.882,2.071,2.071,0,0,1-.448-.81.8.8,0,0,0-1.548.424,3.675,3.675,0,0,0,.8,1.454,2.055,2.055,0,0,1,0,2.746A3.666,3.666,0,0,0,324.1,532.023Z" transform="translate(-9.47 -1.951)" fill="#bfbfbf"/>
        <path id="Tracé_2340" data-name="Tracé 2340" d="M315.243,528.953h1.6a2.065,2.065,0,0,1,.526-1.373,3.659,3.659,0,0,0,0-4.882,2.076,2.076,0,0,1-.447-.81.8.8,0,0,0-1.548.424,3.679,3.679,0,0,0,.8,1.454,2.055,2.055,0,0,1,0,2.746A3.666,3.666,0,0,0,315.243,528.953Z" transform="translate(-5.352 -0.523)" fill="#bfbfbf"/>
        <path id="Tracé_2341" data-name="Tracé 2341" d="M313.846,557.619a7.44,7.44,0,0,0,7.261-5.866h1.384a4.172,4.172,0,0,0,4.167-4.167v-.847a4.172,4.172,0,0,0-4.167-4.167h-1.233a1.257,1.257,0,0,0-1.242-1.081H305a1.262,1.262,0,0,0-1.261,1.26v7.439a7.438,7.438,0,0,0,7.43,7.43Zm10.672-10.881v.847a2.03,2.03,0,0,1-2.027,2.028h-1.215v-4.9h1.215A2.03,2.03,0,0,1,324.518,546.739Zm-18.641,3.451V543.63h13.259v6.559a5.3,5.3,0,0,1-5.29,5.29h-2.679A5.3,5.3,0,0,1,305.877,550.19Z" transform="translate(0 -9.904)" fill="#bfbfbf"/>
        <g id="Groupe_1320" data-name="Groupe 1320" transform="translate(304.674 520.2)">
            <g id="Groupe_1316" data-name="Groupe 1316" transform="translate(15.398 11.866)">
                <path id="Tracé_2342" data-name="Tracé 2342" d="M337.634,551.568H334.28v-9.181h3.354a4.171,4.171,0,0,1,4.167,4.167v.847A4.171,4.171,0,0,1,337.634,551.568Zm-1.215-2.139h1.215a2.03,2.03,0,0,0,2.027-2.028v-.847a2.03,2.03,0,0,0-2.027-2.027h-1.215Z" transform="translate(-334.28 -542.387)" fill="#fff"/>
            </g>
            <g id="Groupe_1317" data-name="Groupe 1317" transform="translate(10.888 1.642)">
                <path id="Tracé_2343" data-name="Tracé 2343" d="M327.45,530.9h-1.6a3.666,3.666,0,0,1,.933-2.441,2.055,2.055,0,0,0,0-2.746,3.675,3.675,0,0,1-.8-1.454.8.8,0,0,1,.783-.987h0a.79.79,0,0,1,.764.563,2.072,2.072,0,0,0,.448.81,3.659,3.659,0,0,1,0,4.882A2.065,2.065,0,0,0,327.45,530.9Z" transform="translate(-325.846 -523.27)" fill="#fff"/>
            </g>
            <g id="Groupe_1318" data-name="Groupe 1318" transform="translate(6.153)">
                <path id="Tracé_2344" data-name="Tracé 2344" d="M318.6,527.828h-1.6a3.666,3.666,0,0,1,.933-2.441,2.055,2.055,0,0,0,0-2.746,3.679,3.679,0,0,1-.8-1.454.8.8,0,0,1,.784-.987h0a.79.79,0,0,1,.764.563,2.077,2.077,0,0,0,.447.81,3.659,3.659,0,0,1,0,4.882A2.062,2.062,0,0,0,318.6,527.828Z" transform="translate(-316.993 -520.2)" fill="#fff"/>
            </g>
            <g id="Groupe_1319" data-name="Groupe 1319" transform="translate(0 10.785)">
                <path id="Tracé_2345" data-name="Tracé 2345" d="M315.6,556.494h-2.679a7.438,7.438,0,0,1-7.43-7.43v-7.439a1.262,1.262,0,0,1,1.261-1.26h15.017a1.261,1.261,0,0,1,1.26,1.26v7.439A7.438,7.438,0,0,1,315.6,556.494Zm-7.969-13.989v6.559a5.3,5.3,0,0,0,5.29,5.29H315.6a5.3,5.3,0,0,0,5.29-5.29v-6.559Z" transform="translate(-305.488 -540.366)" fill="#fff"/>
            </g>
        </g>
    </g>
</svg>
