<svg xmlns="http://www.w3.org/2000/svg" width="29.075" height="29.075" viewBox="0 0 21.032 22.329">
    <g id="Groupe_1302" data-name="Groupe 1302" transform="translate(-572.861 -204.017)">
        <path id="Tracé_2293" data-name="Tracé 2293" d="M576.358,222.91a1.322,1.322,0,0,0,1.737-.067,9.412,9.412,0,0,0-.547-14.164,1.323,1.323,0,0,0-1.737.067,9.412,9.412,0,0,0,.547,14.164Zm.381-12.646a7.678,7.678,0,0,1,.428,11.062,7.679,7.679,0,0,1-.428-11.062Z" transform="translate(0 -2.478)" fill="#159bed"/>
        <path id="Tracé_2294" data-name="Tracé 2294" d="M604.077,227.557a2.545,2.545,0,1,0,2.545-2.545A2.548,2.548,0,0,0,604.077,227.557Zm3.358,0a.813.813,0,1,1-.814-.813A.815.815,0,0,1,607.435,227.557Z" transform="translate(-17.705 -11.908)" fill="#159bed"/>
        <path id="Tracé_2295" data-name="Tracé 2295" d="M576.887,238.121a23.25,23.25,0,0,0,5.433-4.544h0l.021-.025c.1-.118.208-.236.309-.356a4.375,4.375,0,0,1,2.777-1.327,4.6,4.6,0,0,1,3.179.978l3.521,2.7a4.418,4.418,0,0,1-5.58.159l-2.26-1.656a.883.883,0,0,0-1.234.19h0a.883.883,0,0,0,.19,1.234l2.245,1.645a6.174,6.174,0,0,0,8.647-1.144l.537-.7-5.105-3.913a6.126,6.126,0,0,0-4.56-1.219c-.067.009-.13.025-.2.036a23.241,23.241,0,0,0,1.833-3.768.858.858,0,0,0-.7-1.153l-.022,0a.856.856,0,0,0-.907.557A21.565,21.565,0,0,1,581.395,232c-.116.122-.226.252-.333.385a21.538,21.538,0,0,1-5.029,4.227.9.9,0,0,0-.384,1.14A.87.87,0,0,0,576.887,238.121Z" transform="translate(-1.536 -12.041)" fill="#159bed"/>
        <path id="Tracé_2296" data-name="Tracé 2296" d="M596.529,213.041a3.949,3.949,0,1,0-3.949-3.949A3.954,3.954,0,0,0,596.529,213.041Zm-.65-6.059a.7.7,0,0,0-.063.29.712.712,0,1,0,1.425,0,.7.7,0,0,0-.063-.29,2.218,2.218,0,1,1-1.3,0Z" transform="translate(-11.184 -0.638)" fill="#159bed"/>
        <g id="Groupe_1301" data-name="Groupe 1301" transform="translate(573.619 204.017)">
            <g id="Groupe_1297" data-name="Groupe 1297" transform="translate(0 1.404)">
                <g id="Groupe_1296" data-name="Groupe 1296">
                    <path id="Tracé_2297" data-name="Tracé 2297" d="M578.938,222.078a1.316,1.316,0,0,1-.83-.293,9.412,9.412,0,0,1-.547-14.164,1.323,1.323,0,0,1,1.737-.067,9.368,9.368,0,0,1,3.494,7.573h0a9.365,9.365,0,0,1-2.946,6.591A1.319,1.319,0,0,1,578.938,222.078Zm-.449-12.94a7.679,7.679,0,0,0,.428,11.062,7.678,7.678,0,0,0-.428-11.062Z" transform="translate(-574.611 -207.261)" fill="#0f71b8"/>
                </g>
            </g>
            <g id="Groupe_1298" data-name="Groupe 1298" transform="translate(13.511 8.6)">
                <path id="Tracé_2298" data-name="Tracé 2298" d="M608.372,228.976a2.545,2.545,0,1,1,2.545-2.545A2.548,2.548,0,0,1,608.372,228.976Zm0-3.358a.813.813,0,1,0,.814.813A.814.814,0,0,0,608.372,225.618Z" transform="translate(-605.827 -223.887)" fill="#0f71b8"/>
            </g>
            <g id="Groupe_1299" data-name="Groupe 1299" transform="translate(1.172 8.702)">
                <path id="Tracé_2299" data-name="Tracé 2299" d="M586.769,224.686a21.6,21.6,0,0,1-8.987,10.8.9.9,0,0,0-.384,1.14.87.87,0,0,0,1.24.366,23.331,23.331,0,0,0,9.756-11.711.858.858,0,0,0-.7-1.153l-.022,0A.856.856,0,0,0,586.769,224.686Z" transform="translate(-577.32 -224.122)" fill="#0f71b8"/>
            </g>
            <path id="Tracé_2300" data-name="Tracé 2300" d="M598.279,204.017a3.949,3.949,0,1,0,3.949,3.949A3.954,3.954,0,0,0,598.279,204.017Zm0,6.168a2.212,2.212,0,0,1-.65-4.328.7.7,0,0,0-.063.29.712.712,0,0,0,1.425,0,.7.7,0,0,0-.063-.29,2.212,2.212,0,0,1-.65,4.328Z" transform="translate(-585.795 -204.017)" fill="#0f71b8"/>
            <g id="Groupe_1300" data-name="Groupe 1300" transform="translate(6.549 13.542)">
                <path id="Tracé_2301" data-name="Tracé 2301" d="M598.029,243.6a6.138,6.138,0,0,1-3.745-1.27l-2.245-1.645a.883.883,0,0,1-.19-1.234h0a.883.883,0,0,1,1.234-.19l2.26,1.656a4.418,4.418,0,0,0,5.58-.159l-3.521-2.7a4.6,4.6,0,0,0-3.179-.978,4.378,4.378,0,0,0-3.107,1.708l-1.374-1.053a6.111,6.111,0,0,1,8.62-1.164l5.105,3.913-.537.7A6.162,6.162,0,0,1,598.029,243.6Z" transform="translate(-589.743 -235.305)" fill="#0f71b8"/>
            </g>
        </g>
    </g>
</svg>
