<svg xmlns="http://www.w3.org/2000/svg" width="29.075" height="29.075" viewBox="0 0 21.24 22.549">
    <g id="Groupe_1328" data-name="Groupe 1328" transform="translate(-409.314 -480.215)">
        <path id="Tracé_2346" data-name="Tracé 2346" d="M412.845,499.252a1.336,1.336,0,0,0,1.755-.068,9.5,9.5,0,0,0-.553-14.3,1.336,1.336,0,0,0-1.754.067,9.505,9.505,0,0,0,.552,14.3Zm.385-12.771a7.755,7.755,0,0,1,.433,11.172,7.755,7.755,0,0,1-.433-11.172Z" transform="translate(0 -2.46)" fill="#bfbfbf"/>
        <path id="Tracé_2347" data-name="Tracé 2347" d="M440.53,503.78a2.57,2.57,0,1,0,2.57-2.569A2.573,2.573,0,0,0,440.53,503.78Zm3.391,0a.822.822,0,1,1-.822-.821A.823.823,0,0,1,443.921,503.78Z" transform="translate(-17.572 -11.819)" fill="#bfbfbf"/>
        <path id="Tracé_2348" data-name="Tracé 2348" d="M413.354,514.447a23.483,23.483,0,0,0,5.486-4.588h0c.007-.009.014-.016.021-.024.1-.119.21-.239.312-.36a4.418,4.418,0,0,1,2.8-1.34,4.636,4.636,0,0,1,3.21.988l3.555,2.724a4.462,4.462,0,0,1-5.635.16l-2.282-1.672a.891.891,0,0,0-1.246.192h0a.891.891,0,0,0,.192,1.246l2.266,1.661a6.236,6.236,0,0,0,8.733-1.155l.542-.707-5.155-3.951a6.185,6.185,0,0,0-4.605-1.231c-.067.009-.132.025-.2.036a23.464,23.464,0,0,0,1.851-3.8.866.866,0,0,0-.7-1.164l-.023,0a.865.865,0,0,0-.916.563,21.79,21.79,0,0,1-3.66,6.253c-.117.124-.228.254-.337.389a21.748,21.748,0,0,1-5.079,4.268.912.912,0,0,0-.388,1.151A.879.879,0,0,0,413.354,514.447Z" transform="translate(-1.525 -11.951)" fill="#bfbfbf"/>
        <path id="Tracé_2349" data-name="Tracé 2349" d="M433.021,489.317a3.988,3.988,0,1,0-3.988-3.988A3.993,3.993,0,0,0,433.021,489.317Zm-.656-6.119a.719.719,0,1,0,1.376.292.709.709,0,0,0-.063-.292,2.24,2.24,0,1,1-1.312,0Z" transform="translate(-11.1 -0.633)" fill="#bfbfbf"/>
        <g id="Groupe_1327" data-name="Groupe 1327" transform="translate(410.079 480.215)">
            <g id="Groupe_1323" data-name="Groupe 1323" transform="translate(0 1.418)">
                <g id="Groupe_1322" data-name="Groupe 1322">
                    <path id="Tracé_2350" data-name="Tracé 2350" d="M415.433,498.423a1.328,1.328,0,0,1-.838-.3,9.505,9.505,0,0,1-.552-14.3,1.336,1.336,0,0,1,1.754-.067,9.46,9.46,0,0,1,3.528,7.648h0a9.458,9.458,0,0,1-2.975,6.655A1.33,1.33,0,0,1,415.433,498.423Zm-.453-13.067a7.755,7.755,0,0,0,.433,11.172,7.755,7.755,0,0,0-.433-11.172Z" transform="translate(-411.064 -483.46)" fill="#fff"/>
                </g>
            </g>
            <g id="Groupe_1324" data-name="Groupe 1324" transform="translate(13.644 8.685)">
                <path id="Tracé_2351" data-name="Tracé 2351" d="M444.85,505.225a2.57,2.57,0,1,1,2.57-2.57A2.573,2.573,0,0,1,444.85,505.225Zm0-3.391a.821.821,0,1,0,.822.821A.822.822,0,0,0,444.85,501.834Z" transform="translate(-442.28 -500.086)" fill="#fff"/>
            </g>
            <g id="Groupe_1325" data-name="Groupe 1325" transform="translate(1.184 8.788)">
                <path id="Tracé_2352" data-name="Tracé 2352" d="M423.315,500.891a21.811,21.811,0,0,1-9.076,10.91.912.912,0,0,0-.388,1.151.879.879,0,0,0,1.252.369,23.562,23.562,0,0,0,9.852-11.827.866.866,0,0,0-.7-1.164l-.023,0A.865.865,0,0,0,423.315,500.891Z" transform="translate(-413.773 -500.321)" fill="#fff"/>
            </g>
            <path id="Tracé_2353" data-name="Tracé 2353" d="M434.771,480.215a3.988,3.988,0,1,0,3.988,3.988A3.993,3.993,0,0,0,434.771,480.215Zm0,6.229a2.234,2.234,0,0,1-.656-4.37.709.709,0,0,0-.063.292.719.719,0,1,0,1.439,0,.709.709,0,0,0-.063-.292,2.233,2.233,0,0,1-.656,4.37Z" transform="translate(-422.164 -480.215)" fill="#fff"/>
            <g id="Groupe_1326" data-name="Groupe 1326" transform="translate(6.614 13.676)">
                <path id="Tracé_2354" data-name="Tracé 2354" d="M434.564,519.885a6.2,6.2,0,0,1-3.782-1.282l-2.266-1.661a.891.891,0,0,1-.192-1.246h0a.891.891,0,0,1,1.246-.192l2.282,1.673a4.463,4.463,0,0,0,5.635-.16l-3.555-2.724a4.636,4.636,0,0,0-3.21-.988,4.421,4.421,0,0,0-3.137,1.724l-1.388-1.063a6.17,6.17,0,0,1,8.705-1.175l5.155,3.951-.542.707A6.223,6.223,0,0,1,434.564,519.885Z" transform="translate(-426.196 -511.503)" fill="#fff"/>
            </g>
        </g>
    </g>
</svg>
