<svg xmlns="http://www.w3.org/2000/svg" width="29.075" height="29.075" viewBox="0 0 29.803 27.275">
    <g id="Groupe_1351" data-name="Groupe 1351" transform="translate(-785.325 -40.695)">
        <rect id="Rectangle_1944" data-name="Rectangle 1944" width="2.356" height="1.909" rx="0.523" transform="translate(801.563 55.871)" fill="#b1b1b1"/>
        <rect id="Rectangle_1945" data-name="Rectangle 1945" width="2.356" height="1.909" rx="0.523" transform="translate(796.04 55.871)" fill="#b1b1b1"/>
        <path id="Tracé_2361" data-name="Tracé 2361" d="M794.617,61.809h.851v.811a.769.769,0,0,0,1.539,0v-.811h.851a.769.769,0,0,0,.769-.769V60.96a.769.769,0,0,0-.769-.769h-.851v-.81a.769.769,0,1,0-1.539,0v.81h-.851a.769.769,0,0,0-.769.769v.081A.769.769,0,0,0,794.617,61.809Z" transform="translate(-3.499 -7.355)" fill="#b1b1b1"/>
        <path id="Tracé_2362" data-name="Tracé 2362" d="M823.183,65.061a1.2,1.2,0,1,0-1.2-1.2A1.2,1.2,0,0,0,823.183,65.061Z" transform="translate(-15.051 -9.02)" fill="#b1b1b1"/>
        <path id="Tracé_2363" data-name="Tracé 2363" d="M819.576,60.158a1.2,1.2,0,1,0-1.2-1.2A1.2,1.2,0,0,0,819.576,60.158Z" transform="translate(-13.57 -7.007)" fill="#b1b1b1"/>
        <path id="Tracé_2364" data-name="Tracé 2364" d="M789.369,68.586a6.239,6.239,0,0,0,6.23-6.095h8.48a6.239,6.239,0,0,0,6.23,6.095,4.048,4.048,0,0,0,4.044-4.044V53.5a8.063,8.063,0,0,0-8.055-8.055h-5.28V42.2h-2.358v3.249H793.38a8.063,8.063,0,0,0-8.055,8.055V64.543A4.048,4.048,0,0,0,789.369,68.586ZM787.683,53.5a5.7,5.7,0,0,1,5.7-5.7H806.3a5.7,5.7,0,0,1,5.7,5.7V64.543a1.688,1.688,0,0,1-1.686,1.686,3.879,3.879,0,0,1-3.874-3.874,2.224,2.224,0,0,0-2.22-2.221h-8.751a2.224,2.224,0,0,0-2.221,2.221,3.878,3.878,0,0,1-3.874,3.874,1.688,1.688,0,0,1-1.686-1.686Z" transform="translate(0 -0.616)" fill="#b1b1b1"/>
        <g id="Groupe_1350" data-name="Groupe 1350" transform="translate(786.098 40.695)">
            <g id="Groupe_1340" data-name="Groupe 1340" transform="translate(0)">
                <g id="Groupe_1337" data-name="Groupe 1337" transform="translate(13.336)">
                    <rect id="Rectangle_1946" data-name="Rectangle 1946" width="2.358" height="4.428" fill="#fff"/>
                </g>
                <g id="Groupe_1339" data-name="Groupe 1339" transform="translate(0 3.249)">
                    <g id="Groupe_1338" data-name="Groupe 1338">
                        <path id="Tracé_2365" data-name="Tracé 2365" d="M811.622,69.349a6.239,6.239,0,0,1-6.23-6.095h-8.48a6.239,6.239,0,0,1-6.23,6.095,4.048,4.048,0,0,1-4.044-4.044V54.262a8.064,8.064,0,0,1,8.055-8.055h12.919a8.064,8.064,0,0,1,8.055,8.055V65.306A4.048,4.048,0,0,1,811.622,69.349ZM796.776,60.9h8.751a2.224,2.224,0,0,1,2.221,2.221,3.878,3.878,0,0,0,3.874,3.874,1.688,1.688,0,0,0,1.686-1.686V54.262a5.7,5.7,0,0,0-5.7-5.7H794.692a5.7,5.7,0,0,0-5.7,5.7V65.306a1.688,1.688,0,0,0,1.686,1.686,3.878,3.878,0,0,0,3.874-3.874A2.224,2.224,0,0,1,796.776,60.9Z" transform="translate(-786.637 -46.207)" fill="#fff"/>
                    </g>
                </g>
            </g>
            <g id="Groupe_1349" data-name="Groupe 1349" transform="translate(5.024 9.175)">
                <g id="Groupe_1341" data-name="Groupe 1341" transform="translate(14.459)">
                    <path id="Tracé_2366" data-name="Tracé 2366" d="M822.087,57.459a1.2,1.2,0,1,1-1.2-1.2A1.2,1.2,0,0,1,822.087,57.459Z" transform="translate(-819.69 -56.261)" fill="#fff"/>
                </g>
                <g id="Groupe_1342" data-name="Groupe 1342" transform="translate(16.585 2.891)">
                    <path id="Tracé_2367" data-name="Tracé 2367" d="M825.693,62.363a1.2,1.2,0,1,1-1.2-1.2A1.2,1.2,0,0,1,825.693,62.363Z" transform="translate(-823.297 -61.165)" fill="#fff"/>
                </g>
                <g id="Groupe_1345" data-name="Groupe 1345" transform="translate(5.691 5.116)">
                    <g id="Groupe_1343" data-name="Groupe 1343" transform="translate(5.524)">
                        <rect id="Rectangle_1947" data-name="Rectangle 1947" width="2.356" height="1.909" rx="0.523" fill="#fff"/>
                    </g>
                    <g id="Groupe_1344" data-name="Groupe 1344">
                        <rect id="Rectangle_1948" data-name="Rectangle 1948" width="2.356" height="1.909" rx="0.523" fill="#fff"/>
                    </g>
                </g>
                <g id="Groupe_1348" data-name="Groupe 1348" transform="translate(0 0.5)">
                    <g id="Groupe_1346" data-name="Groupe 1346" transform="translate(1.621)">
                        <path id="Tracé_2368" data-name="Tracé 2368" d="M798.679,61.89h0a.769.769,0,0,1-.769-.769V57.88a.77.77,0,0,1,.769-.77h0a.77.77,0,0,1,.769.77v3.241A.769.769,0,0,1,798.679,61.89Z" transform="translate(-797.91 -57.11)" fill="#fff"/>
                    </g>
                    <g id="Groupe_1347" data-name="Groupe 1347" transform="translate(0 1.58)">
                        <rect id="Rectangle_1949" data-name="Rectangle 1949" width="1.619" height="4.779" rx="0.81" transform="translate(0 1.619) rotate(-90)" fill="#fff"/>
                    </g>
                </g>
            </g>
        </g>
    </g>
</svg>
