<svg id="icon-2" xmlns="http://www.w3.org/2000/svg" width="29.075" height="29.075" viewBox="0 0 20.488 18.751">
    <g id="Groupe_100" data-name="Groupe 100" transform="translate(-154.347 -254.332)">
        <rect id="Rectangle_143" data-name="Rectangle 143" width="1.619" height="1.312" rx="0.523" transform="translate(165.51 264.765)" fill="#159bed"/>
        <rect id="Rectangle_144" data-name="Rectangle 144" width="1.619" height="1.312" rx="0.523" transform="translate(161.713 264.765)" fill="#159bed"/>
        <path id="Tracé_117" data-name="Tracé 117" d="M163.4,274.447h.585V275a.529.529,0,0,0,1.058,0v-.557h.585a.529.529,0,0,0,.529-.529v-.056a.529.529,0,0,0-.529-.529h-.585v-.557a.529.529,0,0,0-1.058,0v.557H163.4a.529.529,0,0,0-.529.529v.056A.529.529,0,0,0,163.4,274.447Z" transform="translate(-5.069 -10.656)" fill="#159bed"/>
        <path id="Tracé_118" data-name="Tracé 118" d="M191.831,277.949a.824.824,0,1,0-.824-.823A.824.824,0,0,0,191.831,277.949Z" transform="translate(-21.805 -13.067)" fill="#159bed"/>
        <path id="Tracé_119" data-name="Tracé 119" d="M188.224,273.046a.824.824,0,1,0-.824-.824A.824.824,0,0,0,188.224,273.046Z" transform="translate(-19.659 -10.151)" fill="#159bed"/>
        <path id="Tracé_120" data-name="Tracé 120" d="M157.127,273.975a4.289,4.289,0,0,0,4.283-4.19h5.83a4.289,4.289,0,0,0,4.283,4.19,2.783,2.783,0,0,0,2.78-2.78V263.6a5.544,5.544,0,0,0-5.538-5.537h-3.63v-2.234h-1.621v2.234h-3.63a5.544,5.544,0,0,0-5.538,5.537v7.592A2.783,2.783,0,0,0,157.127,273.975ZM155.968,263.6a3.921,3.921,0,0,1,3.917-3.916h8.881a3.921,3.921,0,0,1,3.917,3.916v7.592a1.161,1.161,0,0,1-1.159,1.159,2.666,2.666,0,0,1-2.663-2.663,1.528,1.528,0,0,0-1.527-1.526h-6.016a1.528,1.528,0,0,0-1.527,1.526,2.666,2.666,0,0,1-2.663,2.663,1.161,1.161,0,0,1-1.159-1.159Z" transform="translate(0 -0.892)" fill="#159bed"/>
        <g id="Groupe_99" data-name="Groupe 99" transform="translate(154.879 254.332)">
            <g id="Groupe_89" data-name="Groupe 89">
                <g id="Groupe_86" data-name="Groupe 86" transform="translate(9.167)">
                    <rect id="Rectangle_145" data-name="Rectangle 145" width="1.621" height="3.044" fill="#0f71b8"/>
                </g>
                <g id="Groupe_88" data-name="Groupe 88" transform="translate(0 2.233)">
                    <g id="Groupe_87" data-name="Groupe 87">
                        <path id="Tracé_121" data-name="Tracé 121" d="M172.836,275.754a4.29,4.29,0,0,1-4.283-4.19h-5.83a4.289,4.289,0,0,1-4.283,4.19,2.783,2.783,0,0,1-2.78-2.78v-7.592a5.543,5.543,0,0,1,5.537-5.537h8.881a5.544,5.544,0,0,1,5.538,5.537v7.592A2.783,2.783,0,0,1,172.836,275.754Zm-10.206-5.811h6.016a1.528,1.528,0,0,1,1.527,1.526,2.666,2.666,0,0,0,2.663,2.663A1.161,1.161,0,0,0,174,272.973v-7.592a3.921,3.921,0,0,0-3.917-3.916H161.2a3.921,3.921,0,0,0-3.916,3.916v7.592a1.161,1.161,0,0,0,1.159,1.159,2.667,2.667,0,0,0,2.663-2.663A1.528,1.528,0,0,1,162.63,269.943Z" transform="translate(-155.66 -259.844)" fill="#0f71b8"/>
                    </g>
                </g>
            </g>
            <g id="Groupe_98" data-name="Groupe 98" transform="translate(3.454 6.308)">
                <g id="Groupe_90" data-name="Groupe 90" transform="translate(9.94)">
                    <path id="Tracé_122" data-name="Tracé 122" d="M190.36,270.722a.824.824,0,1,1-.824-.823A.824.824,0,0,1,190.36,270.722Z" transform="translate(-188.713 -269.899)" fill="#0f71b8"/>
                </g>
                <g id="Groupe_91" data-name="Groupe 91" transform="translate(11.401 1.987)">
                    <path id="Tracé_123" data-name="Tracé 123" d="M193.967,275.626a.824.824,0,1,1-.824-.824A.824.824,0,0,1,193.967,275.626Z" transform="translate(-192.319 -274.802)" fill="#0f71b8"/>
                </g>
                <g id="Groupe_94" data-name="Groupe 94" transform="translate(3.912 3.517)">
                    <g id="Groupe_92" data-name="Groupe 92" transform="translate(3.797)">
                        <rect id="Rectangle_146" data-name="Rectangle 146" width="1.619" height="1.312" rx="0.523" fill="#0f71b8"/>
                    </g>
                    <g id="Groupe_93" data-name="Groupe 93">
                        <rect id="Rectangle_147" data-name="Rectangle 147" width="1.619" height="1.312" rx="0.523" fill="#0f71b8"/>
                    </g>
                </g>
                <g id="Groupe_97" data-name="Groupe 97" transform="translate(0 0.344)">
                    <g id="Groupe_95" data-name="Groupe 95" transform="translate(1.114)">
                        <path id="Tracé_124" data-name="Tracé 124" d="M167.461,274.033h0a.529.529,0,0,1-.529-.529v-2.228a.529.529,0,0,1,.529-.529h0a.529.529,0,0,1,.529.529V273.5A.529.529,0,0,1,167.461,274.033Z" transform="translate(-166.932 -270.748)" fill="#0f71b8"/>
                    </g>
                    <g id="Groupe_96" data-name="Groupe 96" transform="translate(0 1.086)">
                        <rect id="Rectangle_148" data-name="Rectangle 148" width="1.113" height="3.286" rx="0.557" transform="translate(0 1.113) rotate(-90)" fill="#0f71b8"/>
                    </g>
                </g>
            </g>
        </g>
    </g>
</svg>
