<svg xmlns="http://www.w3.org/2000/svg" width="29.075" height="29.075" viewBox="0 0 23.635 21.561">
    <g id="Groupe_1295" data-name="Groupe 1295" transform="translate(-77.732 -360.859)">
        <path id="Tracé_2287" data-name="Tracé 2287" d="M99.018,366.769h-3.1l-.512-2.176a2.887,2.887,0,0,0-2.821-2.234H85.474a2.887,2.887,0,0,0-2.821,2.234l-.512,2.176h-3.1a1.316,1.316,0,0,0-1.314,1.314v13.857a1.315,1.315,0,0,0,1.314,1.314H99.018a1.316,1.316,0,0,0,1.315-1.314V368.084A1.316,1.316,0,0,0,99.018,366.769ZM84.378,365a1.121,1.121,0,0,1,1.1-.867h7.117a1.121,1.121,0,0,1,1.1.867l.417,1.77H83.962ZM98.56,381.483H79.5V368.542H98.56Z" transform="translate(0 -0.835)" fill="#159bed"/>
        <path id="Tracé_2288" data-name="Tracé 2288" d="M83.4,384.676a.886.886,0,0,0,.886.886H100.09a.886.886,0,1,0,0-1.773H84.284A.886.886,0,0,0,83.4,384.676Z" transform="translate(-3.155 -12.769)" fill="#159bed"/>
        <path id="Tracé_2289" data-name="Tracé 2289" d="M101.876,392.758h-1.192v-1.192a.655.655,0,0,0-.655-.655h-.464a.654.654,0,0,0-.654.655v1.192H97.719a.654.654,0,0,0-.654.655v.464a.654.654,0,0,0,.654.654h1.193v1.193a.654.654,0,0,0,.654.654h.464a.655.655,0,0,0,.655-.654V394.53h1.192a.654.654,0,0,0,.654-.654v-.464A.654.654,0,0,0,101.876,392.758Z" transform="translate(-10.765 -16.734)" fill="#159bed"/>
        <g id="Groupe_1294" data-name="Groupe 1294" transform="translate(78.766 360.859)">
            <g id="Groupe_1288" data-name="Groupe 1288" transform="translate(0 4.41)">
                <path id="Tracé_2290" data-name="Tracé 2290" d="M101.352,387.3H81.379a1.316,1.316,0,0,1-1.314-1.314V372.125a1.316,1.316,0,0,1,1.314-1.314h19.972a1.316,1.316,0,0,1,1.314,1.314v13.857A1.316,1.316,0,0,1,101.352,387.3Zm-19.514-1.773h19.056V372.584H81.838Z" transform="translate(-80.065 -370.811)" fill="#0f71b8"/>
            </g>
            <g id="Groupe_1289" data-name="Groupe 1289" transform="translate(3.992)">
                <path id="Tracé_2291" data-name="Tracé 2291" d="M103.69,367.042H89.073L90,363.093a2.887,2.887,0,0,1,2.821-2.234H99.94a2.887,2.887,0,0,1,2.82,2.234Zm-12.378-1.773h10.14l-.416-1.77a1.121,1.121,0,0,0-1.1-.867H92.823a1.121,1.121,0,0,0-1.1.867Z" transform="translate(-89.073 -360.859)" fill="#0f71b8"/>
            </g>
            <g id="Groupe_1290" data-name="Groupe 1290" transform="translate(2.511 9.497)">
                <path id="Tracé_2292" data-name="Tracé 2292" d="M102.423,384.063H86.617a.886.886,0,0,1-.886-.886h0a.886.886,0,0,1,.886-.886h15.806a.886.886,0,0,1,.886.886h0A.886.886,0,0,1,102.423,384.063Z" transform="translate(-85.731 -382.29)" fill="#0f71b8"/>
            </g>
            <g id="Groupe_1293" data-name="Groupe 1293" transform="translate(8.568 12.653)">
                <g id="Groupe_1291" data-name="Groupe 1291" transform="translate(1.847)">
                    <rect id="Rectangle_1937" data-name="Rectangle 1937" width="1.773" height="5.466" rx="0.886" fill="#0f71b8"/>
                </g>
                <g id="Groupe_1292" data-name="Groupe 1292" transform="translate(0 1.847)">
                    <rect id="Rectangle_1938" data-name="Rectangle 1938" width="5.466" height="1.773" rx="0.886" fill="#0f71b8"/>
                </g>
            </g>
        </g>
    </g>
</svg>
