<svg xmlns="http://www.w3.org/2000/svg" width="29.075" height="29.075" viewBox="0 0 31.221 29.982">
    <g id="Groupe_1314" data-name="Groupe 1314" transform="translate(-337.743 -388.021)">
        <path id="Tracé_2326" data-name="Tracé 2326" d="M365.652,406.5h-4.537a1.2,1.2,0,0,0-1.5,1.176v11.89H346.207v-11.89a1.2,1.2,0,0,0-1.5-1.176H340.17v-.038h-2.427v4.547a1.281,1.281,0,0,0,1.28,1.28h4.758v10.991a1.978,1.978,0,0,0,1.978,1.978h14.305a1.977,1.977,0,0,0,1.977-1.977V412.286H366.8a1.281,1.281,0,0,0,1.28-1.28v-4.547h-2.427Zm-25.482,3.362v-1.542h3.611v1.542Zm19.444,12.969H346.207v-1.445h13.407v1.445Zm2.427-12.969v-1.542h3.611v1.542Z" transform="translate(0 -7.251)" fill="#bfbfbf"/>
        <path id="Tracé_2327" data-name="Tracé 2327" d="M340.17,395.417a3.552,3.552,0,0,1,3.552-3.552h4.329a4.916,4.916,0,0,0,9.72,0H362.1a3.552,3.552,0,0,1,3.552,3.552v4.348h2.427v-4.348a5.979,5.979,0,0,0-5.979-5.979h-5.514a1.186,1.186,0,0,0-1.163.956,1.2,1.2,0,0,0-.029.258c0,.019,0,.036.005.055v.419a2.491,2.491,0,0,1-2.718,2.478,2.578,2.578,0,0,1-2.259-2.609v-.367a1.19,1.19,0,0,0-1.19-1.189l-.019,0-.019,0h-5.473a5.979,5.979,0,0,0-5.979,5.979v4.348h2.427Z" transform="translate(0 -0.557)" fill="#bfbfbf"/>
        <rect id="Rectangle_1939" data-name="Rectangle 1939" width="6.038" height="1.82" transform="translate(361.725 398.386)" fill="#fff"/>
        <rect id="Rectangle_1940" data-name="Rectangle 1940" width="6.037" height="1.82" transform="translate(339.854 398.386)" fill="#fff"/>
        <rect id="Rectangle_1941" data-name="Rectangle 1941" width="15.834" height="1.82" transform="translate(345.879 411.452)" fill="#fff"/>
        <path id="Tracé_2328" data-name="Tracé 2328" d="M366.2,405.042a1.213,1.213,0,0,0-1.213,1.213v15.155H351.579V406.255a1.213,1.213,0,0,0-1.213-1.213h0a1.213,1.213,0,0,0-1.213,1.213v15.6a1.978,1.978,0,0,0,1.978,1.978h14.306a1.977,1.977,0,0,0,1.977-1.977v-15.6a1.213,1.213,0,0,0-1.214-1.213Z" transform="translate(-4.487 -6.694)" fill="#fff"/>
        <path id="Tracé_2329" data-name="Tracé 2329" d="M346.452,410.869h-5.971a1.281,1.281,0,0,1-1.28-1.28v-4.547h2.427v3.4h4.824Z" transform="translate(-0.573 -6.694)" fill="#fff"/>
        <path id="Tracé_2330" data-name="Tracé 2330" d="M383.221,410.869H377.25v-2.427h4.824v-3.4H384.5v4.547A1.281,1.281,0,0,1,383.221,410.869Z" transform="translate(-15.537 -6.694)" fill="#fff"/>
        <path id="Tracé_2331" data-name="Tracé 2331" d="M345.18,388.021A5.979,5.979,0,0,0,339.2,394v4.348h2.427V394a3.552,3.552,0,0,1,3.552-3.552h5.473a1.213,1.213,0,0,0,1.214-1.213h0a1.214,1.214,0,0,0-1.214-1.214Z" transform="translate(-0.573 0)" fill="#fff"/>
        <path id="Tracé_2332" data-name="Tracé 2332" d="M375,388.021h-5.492a1.214,1.214,0,0,0-1.213,1.214h0a1.213,1.213,0,0,0,1.213,1.213H375A3.552,3.552,0,0,1,378.552,394v4.348h2.427V394A5.979,5.979,0,0,0,375,388.021Z" transform="translate(-12.015 0)" fill="#fff"/>
        <path id="Tracé_2333" data-name="Tracé 2333" d="M364.725,388.021a1.186,1.186,0,0,0-1.186,1.186v.5a2.491,2.491,0,0,1-2.718,2.478,2.579,2.579,0,0,1-2.259-2.61v-.366a1.19,1.19,0,0,0-1.19-1.19h0a1.182,1.182,0,0,0-1.182,1.182v1.244h0a4.916,4.916,0,0,0,9.721,0h0v-1.241a1.186,1.186,0,0,0-1.186-1.186Z" transform="translate(-7.255 0)" fill="#fff"/>
    </g>
</svg>
