<svg xmlns="http://www.w3.org/2000/svg" width="29.075" height="29.075" viewBox="0 0 20.053 19.258">
    <g id="Groupe_85" data-name="Groupe 85" transform="translate(-78.607 -199.593)">
        <path id="Tracé_109" data-name="Tracé 109" d="M96.533,218.055H93.619a.771.771,0,0,0-.964.755v7.638H84.044v-7.638a.771.771,0,0,0-.964-.755H80.166v-.025H78.607v2.921a.823.823,0,0,0,.822.822h3.056v7.059a1.27,1.27,0,0,0,1.27,1.27h9.188a1.27,1.27,0,0,0,1.27-1.27v-7.06H97.27a.823.823,0,0,0,.822-.822V218.03H96.533Zm-16.367,2.16v-.991h2.319v.991Zm12.489,8.33H84.044v-.928h8.611v.928Zm1.559-8.33v-.991h2.32v.991Z" transform="translate(0 -11.252)" fill="#159bed"/>
        <path id="Tracé_110" data-name="Tracé 110" d="M80.166,204.85a2.281,2.281,0,0,1,2.281-2.281h2.781a3.158,3.158,0,0,0,6.243,0h2.781a2.282,2.282,0,0,1,2.282,2.281v2.793h1.559V204.85a3.84,3.84,0,0,0-3.84-3.84H90.71a.762.762,0,0,0-.747.613.777.777,0,0,0-.019.166c0,.012,0,.023,0,.035v.269a1.6,1.6,0,0,1-1.746,1.592,1.656,1.656,0,0,1-1.451-1.676v-.236a.764.764,0,0,0-.764-.764h-3.54a3.84,3.84,0,0,0-3.84,3.84v2.793h1.559Z" transform="translate(0 -0.865)" fill="#159bed"/>
        <rect id="Rectangle_140" data-name="Rectangle 140" width="3.878" height="1.169" transform="translate(94.011 206.25)" fill="#0f71b8"/>
        <rect id="Rectangle_141" data-name="Rectangle 141" width="3.878" height="1.169" transform="translate(79.963 206.25)" fill="#0f71b8"/>
        <rect id="Rectangle_142" data-name="Rectangle 142" width="10.17" height="1.169" transform="translate(83.833 214.643)" fill="#0f71b8"/>
        <path id="Tracé_111" data-name="Tracé 111" d="M100.966,216.614a.779.779,0,0,0-.779.779v9.734H91.575v-9.734a.779.779,0,0,0-.779-.779h0a.779.779,0,0,0-.779.779v10.023a1.27,1.27,0,0,0,1.27,1.27h9.189a1.27,1.27,0,0,0,1.27-1.27V217.393a.779.779,0,0,0-.779-.779Z" transform="translate(-6.963 -10.388)" fill="#0f71b8"/>
        <path id="Tracé_112" data-name="Tracé 112" d="M84.722,220.357H80.887a.823.823,0,0,1-.822-.822v-2.921h1.559V218.8h3.1Z" transform="translate(-0.89 -10.388)" fill="#0f71b8"/>
        <path id="Tracé_113" data-name="Tracé 113" d="M121.949,220.357h-3.835V218.8h3.1v-2.184h1.559v2.921A.823.823,0,0,1,121.949,220.357Z" transform="translate(-24.111 -10.388)" fill="#0f71b8"/>
        <path id="Tracé_114" data-name="Tracé 114" d="M83.905,199.593a3.84,3.84,0,0,0-3.84,3.84v2.793h1.559v-2.793a2.281,2.281,0,0,1,2.281-2.282H87.42a.779.779,0,0,0,.779-.779h0a.779.779,0,0,0-.779-.779Z" transform="translate(-0.89)" fill="#0f71b8"/>
        <path id="Tracé_115" data-name="Tracé 115" d="M113.465,199.593h-3.528a.779.779,0,0,0-.779.779h0a.779.779,0,0,0,.779.779h3.528a2.282,2.282,0,0,1,2.282,2.282v2.793h1.559v-2.793A3.84,3.84,0,0,0,113.465,199.593Z" transform="translate(-18.645)" fill="#0f71b8"/>
        <path id="Tracé_116" data-name="Tracé 116" d="M102.536,199.593a.762.762,0,0,0-.762.762v.322a1.6,1.6,0,0,1-1.746,1.592,1.656,1.656,0,0,1-1.451-1.676v-.235a.764.764,0,0,0-.764-.764h0a.759.759,0,0,0-.759.76v.8h0a3.158,3.158,0,0,0,6.244,0h0v-.8a.762.762,0,0,0-.762-.762Z" transform="translate(-11.258)" fill="#0f71b8"/>
    </g>
</svg>
