<svg xmlns="http://www.w3.org/2000/svg" width="29.075" height="29.075" viewBox="0 0 23.767 24.591">
    <g id="Groupe_102" data-name="Groupe 102" transform="translate(-239.617 -279.474)">
        <path id="Tracé_130" data-name="Tracé 130" d="M244.848,304.882c2.884,0,5.231-2.007,5.231-4.475,0-.082-.009-.162-.014-.242h.014v-9.2l10.685-3.206v5.681a5.762,5.762,0,0,0-3.341-1.035c-2.884,0-5.231,2.007-5.231,4.475s2.347,4.475,5.231,4.475c2.836,0,5.147-1.942,5.224-4.353h.007V281.269a.247.247,0,0,0-.318-.237l-13.969,4.191a.248.248,0,0,0-.177.237v11.507a5.763,5.763,0,0,0-3.341-1.036c-2.884,0-5.231,2.007-5.231,4.475S241.964,304.882,244.848,304.882Zm12.574-5.42c-1.843,0-3.342-1.16-3.342-2.585s1.5-2.585,3.342-2.585,3.341,1.159,3.341,2.585S259.265,299.462,257.423,299.462Zm-7.167-12.832,10.19-3.057a.247.247,0,0,1,.318.237v1.975l-10.685,3.206v-2.124A.247.247,0,0,1,250.256,286.63Zm-5.408,11.192c1.842,0,3.341,1.16,3.341,2.585s-1.5,2.585-3.341,2.585-3.342-1.16-3.342-2.585S243.005,297.822,244.848,297.822Z" transform="translate(0 -0.816)" fill="#bfbfbf"/>
        <path id="Tracé_131" data-name="Tracé 131" d="M246.395,319.988c-2.884,0-5.231-2.007-5.231-4.475s2.347-4.475,5.231-4.475,5.231,2.007,5.231,4.475S249.279,319.988,246.395,319.988Zm0-7.06c-1.842,0-3.341,1.16-3.341,2.585s1.5,2.585,3.341,2.585,3.342-1.16,3.342-2.585S248.238,312.928,246.395,312.928Z" transform="translate(-0.816 -16.653)" fill="#fff"/>
        <path id="Tracé_132" data-name="Tracé 132" d="M273.013,312.516c-2.884,0-5.231-2.007-5.231-4.475s2.347-4.475,5.231-4.475,5.231,2.007,5.231,4.475S275.9,312.516,273.013,312.516Zm0-7.06c-1.843,0-3.342,1.16-3.342,2.585s1.5,2.585,3.342,2.585,3.341-1.16,3.341-2.585S274.856,305.456,273.013,305.456Z" transform="translate(-14.86 -12.711)" fill="#fff"/>
        <path id="Tracé_2369" data-name="Tracé 2369" d="M0,0H13.128V1.89H0Z" transform="matrix(0.958, -0.287, 0.287, 0.958, 249.594, 287.807)" fill="#fff"/>
        <path id="Tracé_133" data-name="Tracé 133" d="M261.2,298.617h-1.89v-14.7a.248.248,0,0,1,.176-.237l13.969-4.191a.247.247,0,0,1,.318.237v15.729h-1.89V282.262a.247.247,0,0,0-.318-.237l-10.19,3.057a.247.247,0,0,0-.176.237Z" transform="translate(-10.391)" fill="#fff"/>
    </g>
</svg>

