<svg xmlns="http://www.w3.org/2000/svg" xmlns:xlink="http://www.w3.org/1999/xlink" width="29.075" height="29.075" viewBox="0 0 29.075 29.053">
    <defs>
        <clipPath id="clip-path">
            <rect width="28.251" height="28.253" fill="none"/>
        </clipPath>
    </defs>
    <g id="Groupe_1312" data-name="Groupe 1312" transform="translate(-247.262 -198.596)">
        <g id="Grille_de_répétition_12" data-name="Grille de répétition 12" transform="translate(247.262 199.396)" clip-path="url(#clip-path)">
            <g transform="translate(-247.262 -199.396)">
                <path id="Tracé_100" data-name="Tracé 100" d="M274.331,212.985h0l1.126-.1a14.146,14.146,0,0,0-11.48-12.633l-.206,1.111.206-1.111a14.189,14.189,0,0,0-1.936-.225,14.129,14.129,0,0,0-14.762,13.46,14.274,14.274,0,0,0,.061,2.125h0a14.149,14.149,0,0,0,10.6,12.225,14.3,14.3,0,0,0,2.8.412,14,14,0,0,0,6.268-1.145,14.263,14.263,0,0,0,2.63-1.5,14.056,14.056,0,0,0,5.863-10.814,14.282,14.282,0,0,0-.042-1.9Zm-1.366-1.4c-.385-.049-.771-.087-1.158-.105a14.159,14.159,0,0,0-6.055,1.061,20.784,20.784,0,0,0-2.638-2.813,14.113,14.113,0,0,0,1.842-6.352c.008-.179,0-.36.005-.54A11.885,11.885,0,0,1,272.964,211.584Zm-11.028-9.3c.253.012.509.033.767.063.01.308.008.616-.006.922a11.861,11.861,0,0,1-1.384,5.027,20.58,20.58,0,0,0-7.507-3.286A11.769,11.769,0,0,1,261.936,202.285Zm-12.4,11.306a11.737,11.737,0,0,1,2.408-6.619,18.326,18.326,0,0,1,8.122,3.211,11.767,11.767,0,0,1-9.768,4.391c-.253-.012-.51-.034-.769-.063C249.519,214.205,249.521,213.9,249.535,213.592Zm-1.073,1.9Zm1.37,1.307c.12.009.242.024.361.029a13.989,13.989,0,0,0,11.634-5.233,18.435,18.435,0,0,1,1.887,1.992,14.132,14.132,0,0,0-6.67,11.346c0,.077,0,.158,0,.235A11.89,11.89,0,0,1,249.832,216.8Zm11.01,9.189a11.972,11.972,0,0,1-1.549-.186c-.005-.258,0-.514.008-.763a11.878,11.878,0,0,1,5.725-9.607,18.3,18.3,0,0,1,2.78,8.669A11.717,11.717,0,0,1,260.842,225.992Zm9.064-3.6a20.531,20.531,0,0,0-2.826-7.946,11.518,11.518,0,0,1,6.17-.527c.005.259,0,.514-.008.763A11.788,11.788,0,0,1,269.906,222.395Z" transform="translate(0 -0.616)" fill="#159bed"/>
            </g>
        </g>
        <g id="Groupe_1313" data-name="Groupe 1313">
            <path id="Tracé_101" data-name="Tracé 101" d="M268.315,235.166l-2.252.2a14.286,14.286,0,0,1-.042-1.9,14.142,14.142,0,0,1,7.852-12.013l1,2.026a11.844,11.844,0,0,0-6.561,11.692Z" transform="translate(-8.153 -9.94)" fill="#0f71b8"/>
            <path id="Tracé_102" data-name="Tracé 102" d="M289.088,221.48a11.907,11.907,0,0,0-8.157.87l-1-2.026a14.16,14.16,0,0,1,9.71-1.036Z" transform="translate(-14.208 -8.815)" fill="#0f71b8"/>
            <path id="Tracé_103" data-name="Tracé 103" d="M258.733,221.429a14.136,14.136,0,0,1-6.315,1.154,14.4,14.4,0,0,1-1.936-.225l.411-2.223a12.1,12.1,0,0,0,1.63.19,11.785,11.785,0,0,0,10.409-5.253l1.877,1.259A14.1,14.1,0,0,1,258.733,221.429Z" transform="translate(-1.4 -7.167)" fill="#0f71b8"/>
            <path id="Tracé_104" data-name="Tracé 104" d="M274.392,210.116l-1.877-1.259a11.846,11.846,0,0,0,1.991-6.054,11.972,11.972,0,0,0-.051-1.788l2.248-.233a14.157,14.157,0,0,1-2.31,9.334Z" transform="translate(-10.984 -0.951)" fill="#0f71b8"/>
            <path id="Tracé_105" data-name="Tracé 105" d="M284.812,233.457l-2.259.06a18.332,18.332,0,0,0-3.371-10.126l1.846-1.3A20.578,20.578,0,0,1,284.812,233.457Z" transform="translate(-13.884 -10.218)" fill="#0f71b8"/>
            <path id="Tracé_106" data-name="Tracé 106" d="M276.46,220.147a18.518,18.518,0,0,0-3.535-3.756l1.414-1.763a20.808,20.808,0,0,1,3.967,4.215Z" transform="translate(-11.162 -6.974)" fill="#0f71b8"/>
            <path id="Tracé_107" data-name="Tracé 107" d="M265.533,212.979a18.357,18.357,0,0,0-9.6-3.947l.234-2.248a20.607,20.607,0,0,1,10.783,4.432Z" transform="translate(-3.771 -3.562)" fill="#0f71b8"/>
            <path id="Tracé_108" data-name="Tracé 108" d="M265.435,198.837l-.206,1.111.206-1.111a14.283,14.283,0,0,0-1.937-.225,14.131,14.131,0,0,0-14.762,13.46,14.354,14.354,0,0,0,.061,2.126h0a14.12,14.12,0,0,0,13.4,12.636,14,14,0,0,0,6.268-1.145,14.265,14.265,0,0,0,2.63-1.5,14.058,14.058,0,0,0,5.864-10.814,14.285,14.285,0,0,0-.043-1.9l-1.126.1,1.126-.1A14.146,14.146,0,0,0,265.435,198.837Zm9.228,12.831a12.053,12.053,0,0,1,.037,1.6,11.874,11.874,0,0,1-12.4,11.307,12.026,12.026,0,0,1-2.354-.346,11.882,11.882,0,0,1-8.9-10.267l-1.124.117,1.124-.118a12.019,12.019,0,0,1-.051-1.787,11.87,11.87,0,0,1,12.4-11.306,12.032,12.032,0,0,1,1.629.19h0a11.88,11.88,0,0,1,9.64,10.609Z" transform="translate(-0.634)" fill="#0f71b8"/>
        </g>
    </g>
</svg>
